<svg xmlns="http://www.w3.org/2000/svg" xmlns:xlink="http://www.w3.org/1999/xlink" fill-rule="evenodd" clip-rule="evenodd" image-rendering="optimizeQuality" shape-rendering="geometricPrecision" text-rendering="geometricPrecision" viewBox="0 0 46914 46914"><defs><radialGradient id="e" cx="23456.8" cy="23456.8" r="22099.3" fx="23456.8" fy="23456.8" gradientTransform="matrix(1.36535 0 0 1.46207 -8570 -10838)" gradientUnits="userSpaceOnUse"><stop offset="0" stop-color="#fff"/><stop offset=".62" stop-color="#f0f5f9"/><stop offset="1" stop-color="#e1ebf4"/></radialGradient><radialGradient id="a" cx="20068.6" cy="-1129.63" r="2051.06" fx="20068.6" fy="-1129.63" gradientTransform="matrix(3.24813 7.82582 -1.89709 13.5619 -47260 -142863)" gradientUnits="userSpaceOnUse"><stop offset="0" stop-color="#0086e6"/><stop offset=".651" stop-color="#0053c4"/><stop offset="1" stop-color="#0021a2"/></radialGradient><radialGradient id="b" cx="21263.2" cy="-1936.93" r="1709.15" fx="21263.2" fy="-1936.93" gradientTransform="matrix(7.33244 11.5182 -4.28256 19.9607 -142943 -208188)" gradientUnits="userSpaceOnUse"><stop offset="0" stop-color="#0072d7"/><stop offset=".651" stop-color="#0054c3"/><stop offset="1" stop-color="#0037af"/></radialGradient><radialGradient id="j" cx="26844.8" cy="-1129.63" r="2051.06" fx="26844.8" fy="-1129.63" gradientTransform="matrix(-3.24821 7.82601 1.89709 13.5619 116185 -195897)" gradientUnits="userSpaceOnUse" xlink:href="#a"/><radialGradient id="f" cx="20028.1" cy="-1188.18" r="7404.06" fx="20028.1" fy="-1188.18" gradientTransform="matrix(.8998 2.16791 -.52553 3.7569 1382 -40143)" gradientUnits="userSpaceOnUse"><stop offset="0" stop-color="#0cf"/><stop offset=".651" stop-color="#007fcc"/><stop offset="1" stop-color="#039"/></radialGradient><radialGradient id="g" cx="24214.9" cy="-79753.3" r="6373.07" fx="24214.9" fy="-79753.3" gradientTransform="matrix(1.35997 11.5188 -.79428 19.9613 -72063 1233300)" gradientUnits="userSpaceOnUse" xlink:href="#b"/><linearGradient id="d" x1="38980.5" x2="25345.5" y1="37980.8" y2="31875.6" gradientUnits="userSpaceOnUse"><stop offset="0" stop-color="#0047a3"/><stop offset=".58" stop-color="#0071be"/><stop offset="1" stop-color="#009cda"/></linearGradient><linearGradient id="c" x1="40929" x2="24893.3" y1="13353.1" y2="35327.9" gradientUnits="userSpaceOnUse"><stop offset="0" stop-color="#00b8f0"/><stop offset=".38" stop-color="#0073c2"/><stop offset="1" stop-color="#002e94"/></linearGradient><linearGradient id="h" x1="5984.51" x2="22020.2" y1="13353.1" y2="35327.9" gradientUnits="userSpaceOnUse" xlink:href="#c"/><linearGradient id="i" x1="7652.67" x2="21848.3" y1="37038.4" y2="32818.1" gradientUnits="userSpaceOnUse" xlink:href="#d"/></defs><rect width="46914" height="46914" fill="none"/><path fill="url(#e)" d="M8301 40554c-1924,-1634 -3848,-3267 -5222,-6116 -1375,-2848 -2199,-6910 -1421,-11285 779,-4375 3162,-9064 6888,-11866 3726,-2802 8796,-3719 13255,-4375 4460,-657 8308,-1054 12156,748 3849,1802 7697,5803 9744,10041 2046,4238 2290,8712 1266,12561 -1024,3848 -3316,7070 -5608,10292 -10353,0 -20705,0 -31058,0z"/><path fill="none" stroke="#006bbe" stroke-linecap="round" stroke-linejoin="round" stroke-width="366.483" d="M2309 40554l2404 0m1818 0l33464 0m1186 0l1183 0m1233 0l1118 0"/><ellipse cx="23457" cy="4942" fill="url(#b)" rx="1769" ry="497"/><path fill="url(#f)" d="M23457 18154c0,0 -1146,1925 -2340,2115l-1159 -3131c0,0 405,-1386 1287,-1404 0,0 -509,-1658 495,-2627 0,0 -640,-2560 -52,-4290 0,0 -830,-2681 0,-3875 377,143 1794,986 3538,0 830,1194 0,3875 0,3875 588,1730 -52,4290 -52,4290 1003,969 494,2627 494,2627 883,18 1287,1404 1287,1404l-1159 3131c-1193,-190 -2339,-2115 -2339,-2115z"/><path fill="url(#g)" d="M25226 4942c830,1194 0,3875 0,3875 588,1730 -52,4290 -52,4290 1003,969 494,2627 494,2627 883,18 1287,1404 1287,1404l-369 997c-788,-826 -1656,-1912 -1432,-2238 223,-325 91,-2356 -637,-2562 580,-1738 0,-4456 0,-4456 532,-648 136,-2881 -8,-3597 229,-82 469,-193 717,-340z"/><path fill="url(#a)" d="M22004 19845c-280,214 -582,375 -887,424l-1159 -3131c0,0 206,-704 643,-1115 96,605 187,1004 187,1004 1469,999 1559,905 1216,2818z"/><path fill="url(#h)" d="M19958 17138c0,0 -468,-2042 -398,-3893 69,-1851 -3979,-4290 -7543,2975 -865,1765 -1831,3863 -2733,6041 -3782,5405 -3726,15488 -1660,15098 3292,-622 2041,-5951 11797,-4359 0,0 3287,692 2110,-4360 -1176,-5051 1386,-4495 -414,-8371 406,-2239 385,-2081 -1159,-3131z"/><path fill="url(#i)" d="M21568 31877l0 0c-551,2037 -3272,2333 -5210,2575 -1937,242 -6230,5351 -8425,2831l-1 0c2914,-888 2052,-5823 11489,-4283 0,0 1562,328 2147,-1123z"/><path fill="#1f98cd" fill-rule="nonzero" d="M19069 28853c-2,-3 -687,-1139 -1653,-1001 -453,397 -269,2075 -268,2080 -373,-668 -225,-1872 64,-2141 -544,-3261 1464,-4787 1469,-4792l284 131c-5,5 -1943,1350 -1418,4545 750,-88 1274,550 1522,1178zm539 -10283c-2,2 -785,820 -2510,-96 -383,-203 -783,-318 -1182,-364 -1437,184 -1484,2049 -1484,2054 -181,-632 31,-1756 996,-2075 -968,-20 -2221,545 -2804,1306l-74 -56c439,-571 1232,-1153 2154,-1343 777,-160 1704,-124 2488,293 1760,814 2288,-20 2290,-22l126 303zm-1173 1425c-11,7 -2786,1402 -4754,4085 648,641 785,2558 521,2826 0,-5 221,-1803 -661,-2691 -703,974 -1193,1966 -1519,3216 -866,3320 -2353,4419 -3163,5078 -352,285 -609,494 -691,779 76,-490 538,-774 633,-851 1899,-1543 2294,-2874 2984,-5171 -744,1037 -1816,847 -2434,396 6,2 1840,738 2614,-920l0 0c1542,-4369 6224,-6992 6239,-7000l231 253z"/><path fill="url(#d)" d="M25345 31877l0 0c551,2037 3273,2333 5210,2575 1938,242 6230,5351 8426,2831l0 0c-2913,-888 -2051,-5823 -11489,-4283 0,0 -1562,328 -2147,-1123z"/><path fill="url(#j)" d="M24909 19845c281,214 583,375 887,424l1159 -3131c0,0 -205,-704 -642,-1115 -97,605 -188,1004 -188,1004 -1468,999 -1559,905 -1216,2818z"/><path fill="url(#c)" d="M26955 17138c0,0 468,-2042 399,-3893 -69,-1851 3979,-4290 7542,2975 866,1765 1831,3863 2734,6041 3781,5405 3726,15488 1660,15098 -3292,-622 -2041,-5951 -11798,-4359 0,0 -3286,692 -2110,-4360 1176,-5051 -1385,-4495 414,-8371 -405,-2239 -385,-2081 1159,-3131z"/><path fill="#1f98cd" fill-rule="nonzero" d="M27844 28853c2,-3 688,-1139 1654,-1001 453,397 268,2075 268,2080 372,-668 225,-1872 -65,-2141 544,-3261 -1463,-4787 -1469,-4792l-283 131c5,5 1943,1350 1418,4545 -750,-88 -1274,550 -1523,1178zm-539 -10283c3,2 785,820 2511,-96 382,-203 782,-318 1182,-364 1437,184 1483,2049 1483,2054 182,-632 -30,-1756 -996,-2075 969,-20 2222,545 2805,1306l73 -56c-438,-571 -1231,-1153 -2154,-1343 -777,-160 -1703,-124 -2488,293 -1760,814 -2288,-20 -2290,-22l-126 303zm1174 1425c10,7 2785,1402 4753,4085 -647,641 -784,2558 -520,2826 0,-5 -222,-1803 660,-2691 703,974 1194,1966 1520,3216 866,3320 2352,4419 3163,5078 352,285 609,494 690,779 -75,-490 -537,-774 -632,-851 -1900,-1543 -2295,-2874 -2984,-5171 744,1037 1816,847 2433,396 -5,2 -1839,738 -2613,-920l0 0c-1543,-4369 -6225,-6992 -6239,-7000l-231 253z"/><circle cx="42636" cy="24788" r="753" fill="none" stroke="#799cc5" stroke-linejoin="round" stroke-width="366.483"/><polygon fill="#799cc5" points="24003 35360 21943 36044 23565 37485"/><path fill="none" stroke="#799cc5" stroke-linejoin="round" stroke-width="366.483" d="M38836 13557l1004 1003m2124 -1003l-1004 1003m-1120 1121l-1004 1003m2124 -1003l1004 1003"/><circle cx="33273" cy="8136" r="773" fill="none" stroke="#799cc5" stroke-linejoin="round" stroke-width="366.483"/><circle cx="4211" cy="24788" r="753" fill="none" stroke="#799cc5" stroke-linejoin="round" stroke-width="366.483"/><path fill="none" stroke="#799cc5" stroke-linejoin="round" stroke-width="366.483" d="M8011 13557l-1004 1003m-2124 -1003l1004 1003m1120 1121l1004 1003m-2124 -1003l-1004 1003"/><circle cx="16375" cy="8607" r="773" fill="none" stroke="#799cc5" stroke-linejoin="round" stroke-width="366.483"/></svg>