<?xml version="1.0" encoding="UTF-8"?>
<svg version="1.1" viewBox="0 0 2048 844" width="1280" height="1280" xmlns="http://www.w3.org/2000/svg">
<path transform="translate(0)" d="m0 0h2048v844h-2048z" fill="#EAEBEB"/>
<path transform="translate(309,225)" d="m0 0h3l1 105h8l-1-22v-83l10 4 7 6 4 8 1 3 1 79v6l9 4 17 6-4-22-5-26-1-10v-18l3-9 7-8 9-5 9-2h11l14 3 15 6 15 8 13 10 22 22 10 13 16 24 11 19 15 29 14 33 11 27 15 43 8 28 12 51 5 33 2 25v12l-2 12-4 8-8 7-7 3h-18l-22-5-28-12-33-11-28-7-23-6-15-5-16-8-12-9-9-10-8-14-7-21-3-18-3-30-2-6-7 1-5 2-6 2-12 11-15 16-9 9-7 8-7 7-6 7-4 14-4 8-11 13-13 10-17 9-15 5-46 11-33 11-32 13-15 5-14 2-11-1-9-4-7-8-4-11-1-6v-21l3-28 7-38 8-34 9-31 14-41 10-25 13-30 12-25 9-17 9-14 10-15 11-14 11-13 14-14 14-11 13-8 13-6 8-2 19-1 11 2 8 4 8 9 4 10v11l-4 25-6 27h25v-76l2-11 5-9 7-6z" fill="#467125"/>
<path transform="translate(385,258)" d="m0 0h17l15 5 15 8 13 10 15 15 11 14 9 12 12 19 14 25 13 26 16 38 9 25 11 33 10 36 8 35 5 31 2 19v22l-3 8-4 3-5 1h-7l-19-5-50-20-22-7-39-9-16-5-16-8-12-10-7-10-5-11-5-19-3-24-2-23-1-5 15-8 7-5 9-12 8-16 4-16v-27l-3-14-5-13-6-11-9-12-1-2h2v-9l-4-26-7-32v-15l4-6 5-4z" fill="#EAEBEB"/>
<path transform="translate(234,258)" d="m0 0h15l8 5 2 3v17l-5 27-3 21 9-1v1l-12 3-4 2v224l8 7 1 1-1 7-8 8-14 9-14 6-13 4-27 6-24 6-26 9-36 15-14 4-6 1h-8l-6-3-3-8v-23l4-30 10-47 8-30 18-55 11-29 16-36 14-27 10-17 10-16 12-16 10-11 7-8 11-10 15-10 14-6z" fill="#EAEBEB"/>
<path transform="translate(307,344)" d="m0 0 27 1 12 3 16 8 10 7 8 9 8 14 3 8 2 15v12l-3 16-8 16-7 9-9 8-8 5-32 10-11 7-10 9-16 16-7 8-13 14-7 9-4 2-1-2-1-66v-134l3-3z" fill="#EAEBEB"/>
<path transform="translate(238,241)" d="m0 0 15 1 9 4 8 7 5 10 1 3v11l-4 25-6 27-2 1-13 1v-9l7-39v-17l-5-5-4-2h-15l-16 5-14 7-12 9-13 12-9 10-13 17-12 19-13 23-12 23-15 34-11 29-15 45-7 25-7 28-8 40-3 24v23l3 8 5 2h8l14-3 28-11 25-10 22-7 39-9 15-4 15-6 12-7 8-7 4-2 4-6 16-11 1 3-4 13-6 9-8 9-13 10-17 9-15 5-46 11-33 11-32 13-15 5-14 2-11-1-9-4-7-8-4-11-1-6v-21l3-28 7-38 8-34 9-31 14-41 10-25 13-30 12-25 9-17 9-14 10-15 11-14 11-13 14-14 14-11 13-8 13-6 8-2z" fill="#0267D2"/>
<path transform="translate(1707,378)" d="m0 0h24l5 5 9 14 11 17 10 16 14 22 9 13 4 5v-91h30l-1 152h-18l-6-3-7-8-12-17-14-22-26-39h-2l-2 89h-19l-10-1v-151z" fill="#467125"/>
<path transform="translate(324,224)" d="m0 0 4 1h3l2 3 7 1 5 4 9 1 2 1-1 2 6 1-1 8 7-3-3-3 1-5 1-2 3 1v4h4l1-4h6l4-2-1-2 3-1 3 3 9-1-1 3 8 1h11l2-1h10l17 1 5 1 1 3 3 1 1-2 9 5 4 4 8 7 18 18 6 8 5 6 3 5 5 8 7 10 6 14 4 9 12 24 4 9 4 11 3 7 2 5 2 6 4 6 1 6 1 3 2 2 2 9 5 12 2 5v3l-2-1v2l4 10 2 3 1 7 2 4 2 3 1 10 3 5v7l2 3v6l2 1 1 8-1 1 3 14h2l4 21-1 3v3l3 11h2l1 14h-1v19l-2-2-2-14-1-14-3-10-3-8 3 13 1 1 3 28v8l1 7v1l1 9h-2l1 8-2 5-3-2-3-34-5-33-10-43-8-29-12-36-9-24-18-43-14-29-10-18-12-19-12-17-11-13-19-19-13-9-17-9-18-6-7-1h-11l-11 3-8 5-5 6-3 9v18l3 22 5 24 1 12-8-2-17-6-2-2v-22l-1-63-4-9-5-6-8-4z" fill="#EEEDF2"/>
<path transform="translate(820,378)" d="m0 0h11l18 1 1 61 51 1-1-62h30v28l-1 123-1 1h-27l-1-63h-50l-1 63h-29z" fill="#467125"/>
<path transform="translate(967,379)" d="m0 0h101v11l-1 16h-70v28l1 6 59 2-1 25h-59v36l70 1 1 26-1 1h-100l-1-1v-135z" fill="#467125"/>
<path transform="translate(1138,378)" d="m0 0 18 1 16 4 14 8 3 3-1 4-4 6-8 9-3 1-12-7-6-2h-21l-8 3-4 4-3 6v11l5 7 9 3 25 4 16 5 9 6 6 7 5 12 1 5v15l-4 11-6 9-8 8-16 8-10 2h-22l-19-3-12-5-6-4-5-4-1-7 12-11 2-2h5l5 4 9 4 15 2h13l10-3 5-3h2l2-7v-12l-3-6-5-3-22-4-16-3-11-4-10-9-5-6-4-11v-20l3-10 6-9 9-8 9-5 13-3z" fill="#457127"/>
<path transform="translate(1966,379)" d="m0 0h19l16 5 11 6 5 5-1 4-4 5-8 7-4 3-6-3-6-4-6-2h-12l-8 3-7 8-4 12-1 6v41l3 14 4 8 7 6 10 3 11-2 10-6 5-2 10 9 7 6-1 4-8 7-12 6-13 3h-12l-14-3-12-6-9-7-7-9-6-12-3-13-1-16v-24l1-15 3-12 5-10 8-10 12-9 13-5z" fill="#467126"/>
<path transform="translate(1438,379)" d="m0 0h19l14 4 13 7 4 4-2 5-7 8-8 8-8-6-6-3-4-1h-9l-9 3-5 5-4 6-3 11-2 21v12l2 18 3 10 5 8 5 4 9 2h8l10-4 8-5 8 7 7 6 1 6-6 7-14 7-10 2h-15l-16-4-12-7-9-8-8-14-3-10-2-16v-38l2-16 5-13 7-10 7-6 16-8z" fill="#467126"/>
<path transform="translate(740,379)" d="m0 0h18l12 3 14 7 5 4 1 4-7 8-7 7-1 2-7-2-5-4-10-3-12 1-7 4-5 6-4 10-2 14v30l2 14 4 11 6 7 7 3h11l9-3 8-6 4 1 11 9 5 6-2 5-9 7-11 5-9 2h-17l-12-3-12-6-10-9-6-8-5-12-3-16-1-19 1-31 3-14 6-11 9-10 9-7 9-4z" fill="#467126"/>
<path transform="translate(1212,378)" d="m0 0 109 1v26l-1 1-37 1-1 1-1 122-1 1h-27l-1-1v-123l-38-1-2-1z" fill="#467125"/>
<path transform="translate(1518,378)" d="m0 0 29 1v124l69 1v15l-1 12h-96l-1-1z" fill="#477225"/>
<path transform="translate(1188,225)" d="m0 0h30l14 3 8 6 6 9 3 9 1 9v22l-3 15-6 8-7 6-9 4-8 1h-28l-4-2-2-7v-74l1-7z" fill="#0267D2"/>
<path transform="translate(705,224)" d="m0 0h14l16 2 10 4 8 8 4 9 1 4v43l-4 9-4 5-12 7-12 2h-25l-6-1-1-10v-48l1-32 1-1z" fill="#0267D2"/>
<path transform="translate(1642,378)" d="m0 0 30 1v97l-1 54-1 1h-26l-2-1z" fill="#477225"/>
<path transform="translate(1888,378)" d="m0 0h2l-1 153h-20l-9-1-1-1v-58l1-92z" fill="#477225"/>
<path transform="translate(272,559)" d="m0 0 1 3-4 13-6 9-8 9-13 10-17 9-15 5-46 11-33 11-32 13-15 5-14 2-11-1-9-4-7-8-4-11-1-6v-21l1-11h1l2 12 1 13 3-22 1-3 3 1 2 13 1 5 1 16 3 8 5 2h8l14-3 28-11 25-10 22-7 39-9 15-4 15-6 12-7 8-7 4-2 4-6z" fill="#0267D2"/>
<path transform="translate(1456,224)" d="m0 0h12l18 2 8 4 7 8 4 12-1 9-5 8-8 6-4 2 2 6 11 21 7 12v4h-8l-7-3-4-5-9-20-5-12-1-1h-17l-1 2v15l1 22-2 1h-11l-2-1-2-44v-23l1-20 1-3 2-1z" fill="#0267D2"/>
<path transform="translate(1707,224)" d="m0 0h15l15 2 10 5 6 7 5 12v7l-5 8-7 6-5 3h-2l4 11 12 22 4 7-2 4-10-1-5-5-7-12-10-24-1-1-10 1-6 1v39l-3 1h-10l-2-5-1-9v-74l2-3z" fill="#0267D2"/>
<path transform="translate(795,224)" d="m0 0h13l16 2 10 5 6 7 4 10-1 10-6 10-10 7 3 9 14 26 1 6-2 2-9-1-4-4-9-16-8-17-1-3-5-1h-9l-4 1v39l-1 1-13-1v-88l4-3z" fill="#0267D2"/>
<path transform="translate(307,344)" d="m0 0 27 1 12 3 16 8 10 7 8 9 8 14 3 8 2 15v12l-3 16-8 16-7 9-5 4 1-6 7-12 1-6 2-4v-3l-5 2 1-4-4 2-1-3 3-4-3 2-1 3-5 2-1 2v-15l3-10 1 3h2v-15h1l-1-9-2-10-3-9v-5l1-3h-3l-2-4-11-6-10-4h-20l-19 2-28-1-14-2-2 1v12l1 9-1 37 2 20 2 1-1 9-2 2 1 16 2 5v5l-1 4 1 5 2 6v8l5-2 1 3-2 4 5 1 2-5 5-1 3 5-1 12v3l6-1 13-9h5l-6 7-11 11-7 8-13 14-7 9-4 2-1-2-1-66v-134l3-3z" fill="#EBF0F5"/>
<path transform="translate(950,224)" d="m0 0 22 1 11 3 8 7 5 9 1 4v9l-4 11-7 7-7 4-5 1-25 1-3-1 1 36-2 1h-10l-2-2v-17l-1-53v-16l2-3 3-1z" fill="#0267D2"/>
<path transform="translate(449,286)" d="m0 0 7 6 10 11 12 16 11 17 16 28 14 28 16 38 9 25 11 33 10 36 8 35 1 10h-2l-1-4-4 3-2-5-2-10-2-2 1-10-3 1-6-17-2 2-15-45-6-17-6-15-1-9-2-3-2-2-1-8-4-9h-2l-2-9-1-7 2 1-2-8h-2l1 4-4-4-2-4 1-3v-3l-3-5-4-10-3-6-2 2-6-9 2-2-10-14-3-5 2-1-7-8 1-2 3 3v2l4 2 3 3-4-9-2-1-1-4-9-10-2-4-4-4-4-10-3-3z" fill="#EEEEF2"/>
<path transform="translate(371,508)" d="m0 0 2 4 1 7 2 6 2 3 5 12v-9h1l1-6h1l1 7 2-1 2 8 2-1 4 11 3 6 5 5 6 9 3 6-5-1 3 6 4 5 14 7 12 5 31 7 12 3 10 4 11 3 12 5 10 3 5 2 10 2 8-1 9-6 3-3 4-14v-15l-1-4 1-8h3l1 14 2 14v20l-1 3h2l1-2-2 11-3 3-1 3 2 1-3 1h-7l-19-5-50-20-22-7-39-9-16-5-16-8-12-10-7-10-5-11-5-19-2-14v-9h1l1 5 1-2z" fill="#EEEEF2"/>
<path transform="translate(1091,224)" d="m0 0 10 1 5 3 12 20 12 19 11 16 5 8-1-29-1-36 2-1h10l1 1 1 10 1 80-1 1h-7l-5-3-5-6-14-21-13-20-8-10-4-4 1 12 1 51-4 1h-7l-2-2-1-15v-75z" fill="#0267D2"/>
<path transform="translate(1384,225)" d="m0 0h8l4 5 14 36 15 43 3 9-12-1-5-8-5-10-36-1-3 8-2 10-3 1h-10l1-9 4-15 9-26 10-27 5-12z" fill="#0267D2"/>
<path transform="translate(1036,224)" d="m0 0 6 1 4 6 11 29 11 32 7 21v5l-10-1-4-4-7-14-26-1-8-1-6 18-3 2h-10l-1-5 5-15 15-42 6-16 6-11z" fill="#0267D2"/>
<path transform="translate(1638,224)" d="m0 0h5l5 6 10 26 7 18 10 30 4 11v3h-8l-5-3-8-16-1-1h-34l-9 18-2 2h-9l1-8 5-17 11-31 8-21 6-13z" fill="#0267D2"/>
<path transform="translate(343,494)" d="m0 0h5l3 7 4 38 4 17 6 16 7 12 10 11 15 10 16 7 28 8 25 6 24 7 27 10 18 8 22 5h21l-2 4-20-1-11-2-23-8-27-11-22-7-39-9-25-8-12-4-11-7-10-9-7-8-2-5h-2v-2h-2l-6-7-4-8-5-15-6-9-8-3-3-1h-9l-4 2-14 14-3 1v-3l-5 5-11 12-6 5h-6l-4 3 2-10 3-8 28-30 9-9 7-8 8-8 8-5 6-1z" fill="#EBF0F5"/>
<path transform="translate(103,417)" d="m0 0 1 4-10 26-15 45-7 25-7 28-8 40-4 31h-1l-2-15-1-3-2-1-3 26-2-2-1-12-1-3v-18l6-36 9-40 8-28 12-36 3-8 1 4h2l3-11 2-4 4-1 2-2 1 6 4-5 4-9z" fill="#076ABA"/>
<path transform="translate(1327,224)" d="m0 0 8 1v91l-1 1h-9l-3-1-1-38-35-1-3-1 1 40-1 1h-11l-3-1-1-89 1-1 14-1v38l38 1 1-27 1-11z" fill="#0267D2"/>
<path transform="translate(1587,223)" d="m0 0h6l-1 6-12 14-8 8-6 8 1 6 8 13 14 25 5 10 1 5-5 1-7-2-6-9-9-16-10-18-3-1-6 5-6 8-2 5-2 25-3 2-9-1-1-1v-89l3-2h11l1 40 1 3 4-2 12-17 11-13 8-9z" fill="#0267D2"/>
<path transform="translate(837,372)" d="m0 0 5 1h4l5 5v-2l5 2 2 6 3 3 4 10 2-4 2 7 3 8 5 1v-5l5-8 3-7-4 2 2-6 3-3 8-4h5v2h2v61h-49l-3-3v-59h-18l-10-1v-1l9-1-2-3h7l2 1z" fill="#EEEDF2"/>
<path transform="translate(708,236)" d="m0 0h14l12 3 8 5 3 7 1 7v18l-2 16-3 5-8 6-5 2-7 1h-11l-3-2-1-4v-59z" fill="#EAEBEB"/>
<path transform="translate(1199,236)" d="m0 0h13l13 4 6 4 4 6 2 13-1 21-3 11-7 6-7 4-4 1h-14l-4-2-1-20v-35l1-10z" fill="#EAEBEB"/>
<path transform="translate(913,372)" d="m0 0h8l2 5h6l2 1v-2h3l1 4-2 3h-2l2 5v3h4l-1 7v4l-1 2 5 1 5 5-5-1 2 5 4 3-3 1-2-1-1 3 5 2 5 5 5-1-2 6-2 7-3 1 1 5 6 1 2-16 2-13 2-2v14l-1 28v9l1 18-1 3-3-1-1-4h-3l-1-2h-6l-2 4-3-3 4-5-5 3-2 5-2 16h-3l-1 3v16l1 4-3 1 2 2h3v2l-2 2v5l-3-2-3 1-1 3h-11l-4-2-5 1-1-2 1-2-4-1 26-1 1-123 1-28h-30l3-2 5-3z" fill="#EEEDF2"/>
<path transform="translate(315,376)" d="m0 0 9 1 2 1 2 23 6 1 9-1 7 1 2 4v17l-6 1h-18l-1 18-1 7-3 1h-9l-7-2v-21l-1-2-3-1-17-1-3-3-1-5v-11l1-1 20-2 4-4v-18l3-2z" fill="#0267D2"/>
<path transform="translate(1057,442)" d="m0 0 4 4-2 7-1 5v3h2v8 2l1 3-2 4h2l-2 5-2 3 2 2-5 4 4 2-3 1 3 3 9 3v3h-70l-1-1v-34l1-2h59v-17z" fill="#EEEEF3"/>
<path transform="translate(1068,379)" d="m0 0 3 3 2 7 1 13 3 3-1-4 12 1-1 7-2 3h-2l-1 7 1 7h-2l-1 2-3-6-2-1v-7l-2-5-3-1-12-1 1 4h-12v2l-4 2 2 2-3 5-9 5 7 1 3 1v2h7l4 4 3 2v5h-27l-32-1-2-7v-26l1-2h70v-16z" fill="#EEEEF2"/>
<path transform="translate(1275,368)" d="m0 0h7l-1 4 3 1h-3v3h6v-2h8l1-1h22l5 4 4 1 1 5-1 10v9l-1 3 1 3-4 7-3 3-2-3-4 1-6 8-6 3-9 5-4 5-1 8-2 20-3 3-1 64 1 4h-2v2l-3 1-2-1v-2l-10 1-3-3-8 1-1-4 26-1 1-122 2-2 37-1 1-26h-92l-17-1-2-3 1-5 4 4v2h2v-2l11-5h41z" fill="#EEEEF3"/>
<path transform="translate(309,225)" d="m0 0h3l1 105-22-1v-76l2-11 5-9 7-6z" fill="#0267D2"/>
<path transform="translate(1310,578)" d="m0 0h3l-1 5-6 11-6 12-3 15-2 29-1 2h-9l-1-3 6-27 1-9-8 2-2 5-7 13-6 9-2 11-7 1-1-6v-8l-7-18-5-7-2-1-2 10-7 21-3 6-4 3-5 1-5-1 2-4 8-12 8-16 7-13-1-6-10-11-8-3-7 3h-4l2-5 4-5 6-3 8 2 6 5 5 5 3 4 3 1 3-10 4-2-1 7-5 8 1 9 7 15 4 11v3l5-5 10-15 12-16 7-11 7-9z" fill="#0267D2"/>
<path transform="translate(790,578)" d="m0 0h3l-1 5-11 20-3 13-3 35-6 2-4-1 2-12 3-15 3-12-4-1h-2l-2 4-12 18-4 5-1 6 1 3-2 4-7 1-2-4-1-11-4-13-3-5-5 1-9 24-4 7-5 2h-8l7-12 6-9 10-22 1-3-2-7-8-9-4-2h-8l-6 2 2-7 5-4 8-1 6 3 7 10h3l4-7 5-1-1 9-1 4v9l4 11 5 12 2 8 6-7 11-19 8-10 10-15 6-7z" fill="#0267D2"/>
<path transform="translate(952,586)" d="m0 0 3 2-2 6 8-5h2v-2l8-1 5 3-1 5-4 11-6 15-7 13-8 10-7 6h-6l-7-6-2-5v-17l4-12 5-8 9-10z" fill="#EAEBEB"/>
<path transform="translate(257,408)" d="m0 0h1l2 20 2 1-1 9-2 2 1 16 2 5v5l-1 4 1 5 2 6v8l5-2 1 3-2 4 5 1 2-5 5-1 3 5-1 12v3l6-1 13-9h5l-6 7-11 11-7 8-13 14-7 9-4 2-1-2z" fill="#EEEEF3"/>
<path transform="translate(361,254)" d="m0 0 1 4-2 7v18l3 22 5 24 1 12-8-2-17-6-1-71 2-6 4 2 6-1z" fill="#EAEBEB"/>
<path transform="translate(964,579)" d="m0 0h7l9 3 3 3-2 10-4 15-8 20-6 10-11 12-5 3-8 1-8-4-6-5-4-8-1-5v-8l4-17 8-16 10-10 10-3zm-12 7-13 12-6 9-4 11-1 3v17l3 6 6 5h6l10-9 9-14 6-13 6-17 2-3-1-5-4-2-8 1v2l-5 2-5 3 2-6z" fill="#0267D2"/>
<path transform="translate(448,261)" d="m0 0 4 1 9 7 12 11 9 10 13 17 7 10 7 12 12 20 10 22 4 8 10 25 7 15 6 16 8 20 5 17 7 22 4 16 7 30 2 11 4 18 1 16-2 4-3-14-5-27-11-46-8-27-17-48-14-33-11-25-15-29-13-21-14-20-11-13-19-19-5-4z" fill="#EAEBEC"/>
<path transform="translate(1540,372)" d="m0 0 5 2 4 4v54l2-1-1 7-1 2 2 3v8l-1 2 1 2 1 16v3l-3 2v10l5-2-2-3 2-1-1-2 4 2 2 2h3l1 5-2 4 1 2 2-1 3 3 8 1-6-5-7-16-5-8-2-2 1-10 1-2h2l1-3h1l1 13 2-4 2 12 1 9 7 7 5 3 7 1-4 2h-4l19 3h10l3 3h6v5h-67l-2-1v-124h-25l-4-2 8-1h7l1-2z" fill="#EEEEF2"/>
<path transform="translate(1078,610)" d="m0 0h12l8 1-1 9-6 27-4 15-6 15-6 10-6 7-10 6-11-1-8-6-1-3 9 2 5 2 8-4 5-4 6-10 8-19 4-12h-2l-1-3 2-3 1-6 4-10 1-7h-8l-5 5-7 14v8l7 1 3 1-9 7-3 1-5-5v-13l4-11 6-9 3-4z" fill="#0267D2"/>
<path transform="translate(351,519)" d="m0 0 2 1 3 24 6 21 8 16 8 10 8 7 15 9 15 6 25 7 25 6 24 7 27 10 18 8 22 5h21l-2 4-20-1-11-2-23-8-27-11-22-7-39-9-25-8-12-4-11-7-10-9-7-8-2-5h-2v-2h-2l-6-7-4-8-5-15-6-9-8-3-3-1h-11l5-5 6-4h6l10 6 3 3-1-5 3 1z" fill="#EEEEF3"/>
<path transform="translate(947,236)" d="m0 0h19l10 3 7 6 1 3v11l-5 6-6 3-11 1h-11l-5-3-1-3v-17l1-9z" fill="#EAEBEB"/>
<path transform="translate(1323,610)" d="m0 0h12l5 5v12l-5 12-7 13-4 2h-9l-6-4-2-7 1-12 6-14 4-5z" fill="#0267D2"/>
<path transform="translate(1517,378)" d="m0 0h1l1 95v57l95 1-4 3h-4l-6 3-1 2-6 2v3l2 1-15-1-5-1 4 3-8-1-11-2-3-3-14 1 3-2-3-2 1-1-17 1-5-2-2 2-2-2 1-3-3-1v-152z" fill="#EDEFF3"/>
<path transform="translate(1711,235)" d="m0 0h10l13 3 8 5 2 5v11l-10 6-4 2h-19l-5-3-1-22 2-6z" fill="#EAEBEB"/>
<path transform="translate(1457,236)" d="m0 0h19l10 4 5 6 1 3v8l-5 5-7 5h-21l-4-1-2-10 1-17z" fill="#EAEBEB"/>
<path transform="translate(796,235)" d="m0 0 15 1 15 4 3 3 1 3v13l-5 4-11 4h-16l-5-2-1-3v-24z" fill="#EAEBEC"/>
<path transform="translate(1011,608)" d="m0 0h9l9 2 2 6-1 3-1 15-4 1-1 4 6-2 3-3 3 1-10 15-5 3-4-1-1-3 5-14 2-8v-11l-2-3-6 2-10 9-5 5-1 6 3 10 4 9-1 2-6-4-6-10-2-5-4 2-6 11-4 8-3 10h-8l-1-3 8-13 15-21h2l-3-9-1-4v-8l4-1 3 6 2 11 7-6z" fill="#0267D2"/>
<path transform="translate(879,609)" d="m0 0h8l3 4v12l-3 13-6 10-5 4-2 1-9-1-4-5v-9l3-8 4-7 5-9z" fill="#0267D2"/>
<path transform="translate(1560,609)" d="m0 0h7l3 2v13l-3 13-5 8-5 5-6 3-5-1-5-5 1-11 8-20 6-5z" fill="#0267D2"/>
<path transform="translate(1547,568)" d="m0 0 5 1 3 1v3l-8 6h-2l-2 5-6 13-3 11v3l2 2-7 6-11 42-3 16-1 1h-5l-2-3 6-24 8-33 2-9 6-12 8-19 6-8z" fill="#0267D3"/>
<path transform="translate(1050,610)" d="m0 0 4 1 1 4-4 15-3 17-7 21-5 13-1 4-8 7-7 6-5 2-8-1-12-5-4-4v-2l7 1 9 3h6l8-6 8-11 9-21 4-13v-16l7-14z" fill="#0267D2"/>
<path transform="translate(1123,609)" d="m0 0 8 1 2 1-2 12-5 19-5 9-3 3h-9l-4-2-1-2v-8l5-15 5-10 5-5z" fill="#0367CF"/>
<path transform="translate(1478,578)" d="m0 0 10 2 4 6-1 11-3 8-2 2-5-1 4-10 1-11h-6l-4 2-11 19-9 21-6 17-2 5 1 5-6-1-1 3h-11l-1-2 5-6h5l2-5 10-27 9-19 9-14 5-4z" fill="#0267D2"/>
<path transform="translate(407,398)" d="m0 0 2 4 5 2 1 5-1 5 1 8h-2l2 11 1 9-3 13-1 4-7 13-4 4-3 5-2-2-9 19-2-1-2 2-1-1v-7l2-5 4-5 4-6 4-7 4-11 1-7 4-11 2-9z" fill="#EAF0F5"/>
<path transform="translate(385,258)" d="m0 0h17l15 5 15 8 13 10 4 5h-3v-2l-5-2v-2l-4-2-14-9-14-5-9 1v2l3 6-1 7h-3l-5 10-3 4-2 4-1-2-2 3-1-9-2-1-3-21v-4l-2-1 5-4z" fill="#EBF0F5"/>
<path transform="translate(307,344)" d="m0 0 27 1 12 3 16 8 10 7 8 9-1 2-7-7-4-2-4-1-2-4-11-6-10-4h-20l-19 2-28-1-14-2-2 1v12l1 9-1 30-1 81h-1v-134l3-3z" fill="#EBF0F5"/>
<path transform="translate(993,370)" d="m0 0h18l43 2 5 1 4 3h-19l-9-3v2l4 1 26 1 3 2h-101v16h-1l-1-14-6 1v-1l-6-1v-1l9-1h4l3-1v-3h2v-2l13-1z" fill="#EEEEF3"/>
<path transform="translate(316,410)" d="m0 0 4 1 4 3 4 4 1 4-1 2-1 18-1 7-3 1h-9l-7-2v-21l-2-4 3-1 1-2 2 1-1-8 4 1z" fill="#076ABA"/>
<path transform="translate(1145,370)" d="m0 0h11l10 4 3 3 4 1v2l3-1 9 3v2l2 1v2l1 6-14-8-12-4-17-2-15 1-15 4-11 7-4 3-4-1-4-5-2-10 7-1 1 3-2 7 5-1 5-6 12-6h16z" fill="#EEEEF2"/>
<path transform="translate(1386,247)" d="m0 0 4 4 7 16 6 18v2l-6 1h-22l-1-4 5-16 6-20z" fill="#EAEBEC"/>
<path transform="translate(1637,249)" d="m0 0 3 1 7 12 5 12 3 13-2 1h-25l-2-1 2-10z" fill="#EAEBEC"/>
<path transform="translate(1035,249)" d="m0 0 5 5 5 10 6 18v5l-3 1h-24l1-10z" fill="#EAEBEC"/>
<path transform="translate(965,496)" d="m0 0h1l1 34h101v2l-17 3h-21v3h-5l-1 2-2-1v-4l-2 1-3 2-4-1v-1h-19l-10 2v-2l-13 1-5-4-1-4h-6l-1-7v-3l4-2-1-3 3-3-3-3v-9h1l1 7h2z" fill="#EEEDF2"/>
<path transform="translate(805,615)" d="m0 0h8l2 2v9l-4 13-6 9-3 2h-5l-3-5v-12l4-11 4-6z" fill="#EAEBEC"/>
<path transform="translate(1078,610)" d="m0 0h12l8 1-1 9-4 17-2 3-1-10h-3l2-14h-8l-5 5-7 14v8l7 1 3 1-9 7-3 1-5-5v-13l4-11 6-9 3-4z" fill="#0468D2"/>
<path transform="translate(1325,615)" d="m0 0 8 1 2 2v7l-6 16-9 10h-4l-4-5v-10l8-16z" fill="#EAEBEC"/>
<path transform="translate(1574,532)" d="m0 0h28l4 2-6 3-1 2-6 2v3l2 1-15-1-5-1 4 3-8-1-11-2-3-3-14 1 3-2-3-2 5-1v-2h26z" fill="#EEEDF2"/>
<path transform="translate(802,610)" d="m0 0h13l5 5v14l-5 14-5 8-7 3-7-1-5-4-2-8 1-13 4-9 6-8zm3 5-4 2-6 12-1 4v12l3 5 7-1 6-8 4-10 1-5v-9l-2-2z" fill="#0267D1"/>
<path transform="translate(374,588)" d="m0 0 7 6 13 9 16 8 23 7 29 7 25 7 25 9 23 10 22 5h21l-2 4-20-1-11-2-23-8-27-11-22-7-39-9-25-8-12-4-5-5-10-7-8-8z" fill="#EBF0F5"/>
<path transform="translate(1068,379)" d="m0 0 3 3 2 7 1 13 3 3-1-4 12 1-1 7-2 3h-2l-1 7 1 7h-2l-1 2-3-6-2-1v-7l-2-5-3-1h-71l-1 32h-1l-1-6v-26l1-2h70v-16z" fill="#EBF0F5"/>
<path transform="translate(797,517)" d="m0 0 1 2-2 3 6-1 4-1 7 3-1 2-1-1h-8l-12 5-5 4-6 3-4 3h-13l-6-2-9-1v-3l-12-2v-1h23l12-3 11-6 5-3 1 4 7-1z" fill="#EEEEF3"/>
<path transform="translate(1487,511)" d="m0 0 2 1-3 9 9 3 1 5-16 8-8 2-7-3-14 2-5-2v-4l-10-1v-1h21l10-2 14-7 5-6z" fill="#EEEEF3"/>
<path transform="translate(1643,242)" d="m0 0 8 1 3 2 11 29v6l-4 7h-4l-4-10v-3h-2l-2-5-1-9-5-13z" fill="#076ABA"/>
<path transform="translate(913,372)" d="m0 0h8l2 5h6l2 1v-2h3l1 4-2 3h-2l2 5v3h4l-1 7 1 3-3 1-1 3 1 6v17l-1 4h-2l-1 88h-1v-113l1-28h-30l3-2 5-3z" fill="#ECEFF4"/>
<path transform="translate(1398,608)" d="m0 0 8 2 1 1v14l-2 14-4 8-4 4-8 2-7-3-4-4 1-5 5-9 2-9 2-2 6 1 1 5-6 8-6 5-1 4 5 2 8-1 6-5 2-4v-10l-2-5-6-6v-5z" fill="#0267D3"/>
<path transform="translate(260,266)" d="m0 0h8l2 4-1 13-3 8-4 11-3 12-3 15-3-1-1-4 4-29 2-12 1-15z" fill="#076ABA"/>
<path transform="translate(1081,615)" d="m0 0h8l1 4-4 12-2 4v5l-2 3v2h2l-1 7h-1l-2-6-4-1-7-1-1-1v-8l8-16z" fill="#EAEBEC"/>
<path transform="translate(1134,404)" d="m0 0h21l8 3-3 2-2 8-6 3-6 10-1-3h-2l2-7-3-1v-2l-12-6-5-1-2 1 1-3 6-3z" fill="#EBF0F5"/>
<path transform="translate(881,615)" d="m0 0 5 2 1 2v12l-4 10-5 5-4 2-6-1-2-1v-8l7-8 4-5v-6z" fill="#EAEBEC"/>
<path transform="translate(1560,616)" d="m0 0h5l3 9-1 7-4 8-4 5-5 3-7-1-1-1v-9l7-7 4-2-1-10z" fill="#EAEBEC"/>
<path transform="translate(1539,227)" d="m0 0h1l1 43-4 4-5-5-3-6-1-12v-13l6-1 1-2 3-1z" fill="#076ABA"/>
<path transform="translate(1168,610)" d="m0 0 5 1 3 3-1 19-4 14-5 6-2 1h-6l7-14 4-21-12 6 2-5 5-8z" fill="#0267D2"/>
<path transform="translate(1394,611)" d="m0 0 2 4 5 5 3 6v10l-4 6-5 4-8 1-6-3 2-5 8-7 3-5v-4l-6-2 4-6h2z" fill="#EBF0F5"/>
<path transform="translate(373,376)" d="m0 0 3 1 1 2 2-2 2 4 5 1 5 12 2 15v12l-2 13h-3l-1-2-1-22-5-17-4-9-4-6z" fill="#EAEBEB"/>
<path transform="translate(1209,378)" d="m0 0h3v27l40 1 1 1v124l-3-1v-7l-2-1-1-15 2 4 1-3 1-96v-3h-20l-5 1-4-2-3 1-8-3-1-5 1-21-3 1-1-2z" fill="#EBF0F5"/>
<path transform="translate(1122,617)" d="m0 0h5l1 3v7l-4 13-7 8-7 3-1-2v-9l6-11 3-5 1-6z" fill="#EAEBEC"/>
<path transform="translate(1445,372)" d="m0 0h19l4 1v2l5 1 4 3-1 1 7 4v2h2l-1 2-8-4-8-1-11-3h-19l-11 2 1-4-4 1 1-2h3v-2z" fill="#EEEEF2"/>
<path transform="translate(1355,611)" d="m0 0 5 2 2 2 1 7-1 9-5 14-4 7-4 2h-3l1-8 5-16 2-16z" fill="#0267D2"/>
<path transform="translate(850,467)" d="m0 0h50v1l-6 1h-43v39l1-5 2 2v10l-3 11v5 3h-5l-5 4h-14v-2l-4-1 1-2-2-2h27v-63z" fill="#ECEFF4"/>
<path transform="translate(1145,609)" d="m0 0 5 2 1 1 1 18-8 18-3 4h-5l-1-3 7-20 1-5v-7l-1-6z" fill="#0267D2"/>
<path transform="translate(1048,248)" d="m0 0 5 1 8 23v7l-3 5-3 1-3-3-3-9-3-12-2-6v-5z" fill="#076AB9"/>
<path transform="translate(1730,371)" d="m0 0 2 3h5l4 7 2 4h2l1 4-5-4-1-2h-5l-4-4h-24l-1 149h-1l-1-135-1-11-1-2 6-4h2l1-2z" fill="#EDEEF3"/>
<path transform="translate(837,611)" d="m0 0 9 1-4 2-1 16-4 16-3 5-7 1 6-36 2-4z" fill="#0267D0"/>
<path transform="translate(1540,372)" d="m0 0 5 2 4 4v54l2-1-1 7-1 2 2 3v8l-1 2 1 2 1 16v3l-3 2v8l-2 2v-107h-25l-4-2 8-1h7l1-2z" fill="#EDEEF3"/>
<path transform="translate(898,382)" d="m0 0 2 1-2 3h-2l1 3h-2l1 4 3-4 1 19v32l-7 1-6-1 5-5 2-4v-25l-2-3v-14l3-6z" fill="#EAEBEB"/>
<path transform="translate(309,426)" d="m0 0 4 1 3 5 3 3h2l3 6 2 5v3l-3 1h-9l-7-2v-11l1-2z" fill="#0267D3"/>
<path transform="translate(307,226)" d="m0 0h4v27l-1 5h-1l-1-9-7 1-3-4-1-12 8-7z" fill="#076ABA"/>
<path transform="translate(870,473)" d="m0 0 11 1 6 3 5 6-1 4v-2h-3l-1 3-5-6-2-1h-8l-8 5-1-2-5 8-2 1-1-4 3-9 6-5z" fill="#EEEDF2"/>
<path transform="translate(1973,372)" d="m0 0h13l10 2 8 3 6 6 2 4-9-3-8-3-2 1-8-2-17-1-3-3v-2z" fill="#EEEDF2"/>
<path transform="translate(965,496)" d="m0 0h1l1 34h101v2l-8 1-95-1v-3h-6l-1-7v-3l4-2-1-3 3-3-3-3v-9h1l1 7h2z" fill="#EBF0F5"/>
<path transform="translate(1498,611)" d="m0 0h10l-1 8-4 20-4 12-3 3h-4l4-16 3-9v-14z" fill="#0267D3"/>
<path transform="translate(1281,408)" d="m0 0h1l1 16-1 108 1 4h-2v2l-3 1-2-1v-2l-10 1-3-3-8 1-1-4 26-1z" fill="#EDEFF4"/>
<path transform="translate(871,298)" d="m0 0 5 1 4 5v7l-2 4-3 1h-8l-5-5v-6l4-5z" fill="#0267D3"/>
<path transform="translate(1450,645)" d="m0 0 16 2h8l9-2 2 2-1 6-3 3h-19l-5-2-7-8z" fill="#0267D3"/>
<path transform="translate(1282,408)" d="m0 0h5l4 5 1 2 3 1-2 6-4 5-3 13-3 8h-1z" fill="#EAEBEB"/>
<path transform="translate(1823,390)" d="m0 0h1v129l2 3-2 12-2-3v-134z" fill="#ECF0F5"/>
<path transform="translate(261,347)" d="m0 0h74v1l-33 4-28-1-13-2z" fill="#EDEEF3"/>
<path transform="translate(374,548)" d="m0 0 3 4 3 9 9 14 15 12 6 3v2l9 3 4 3h-6l-16-8-8-6-6-5-7-10-5-11-1-3z" fill="#EAEBEC"/>
<path transform="translate(762,375)" d="m0 0h3l4 2 3-1 11 4v2l4 4 3 7-5-2-10-6-12-4-5-1-16-1v-1l11-1 1-1z" fill="#EEEEF2"/>
<path transform="translate(779,228)" d="m0 0h1v88h13v-37l3-3 2-1h9l3 2h-11l-4 1 1 34v5l-2 1h-11l-5-2z" fill="#ECF0F5"/>
<path transform="translate(819,378)" d="m0 0h1v153l-2-1-2-9-1-8 2 3 1-20 1-112-4-2z" fill="#EBF0F5"/>
<path transform="translate(347,497)" d="m0 0h3l2 11v24l-4-1-3-12-2-7 1-7z" fill="#EAEBEB"/>
<path transform="translate(1403,255)" d="m0 0h3l7 19v2l-4 1h-2l-5-1-2-3-1-5-3-3 2-5 2-3h4z" fill="#076ABA"/>
<path transform="translate(386,345)" d="m0 0 3 4 6 9 1 4 2 1v3h2l4 11v8l4 2 1 7-1 3h-2l-5-17-8-15-9-12-1-2h2z" fill="#EEEEF2"/>
<path transform="translate(1076,401)" d="m0 0 12 1-1 7-2 3h-2l-1 7 1 7h-2l-1 2-3-6-2-1v-7l-1-3v-7l3 1z" fill="#EAF0F5"/>
<path transform="translate(326,378)" d="m0 0 2 2 1 21 17-1 6 2 2 4v15l-1 3-2 1h-22l-1 20-1 5-2 1h-11v-1l12-1 1-25 1-1h24l-1-17-1-3-10-1-10 1-3-2z" fill="#ECF0F5"/>
<path transform="translate(851,383)" d="m0 0 3 2 2-2 3 7 2 9v6h-3l-1-1-1 2-1 9-2-1v-7h-2l-1-21z" fill="#EAEBEB"/>
<path transform="translate(999,407)" d="m0 0 4 2 2 6-1 12-1 7 3 4v2h-8v-32z" fill="#EAEBEB"/>
<path transform="translate(1874,374)" d="m0 0h4 8v2l2 1v2h-28v92h-1v-93l9-1z" fill="#EBF0F5"/>
<path transform="translate(1089,225)" d="m0 0h1l1 75 1 15 1 1h11l-1-14v-31h1l1 29 1 17-1 1h-14l-2-3z" fill="#EBF0F5"/>
<path transform="translate(1959,375)" d="m0 0h5v3l2 2-14 4-11 7-6 4v-2h-2l-1 2-2-2h2v-3h2v-2l13-8 10-4h2z" fill="#ECEDF0"/>
<path transform="translate(727,378)" d="m0 0h13v2l-13 3-12 7-8 8-5-1 4-7 9-7z" fill="#EBECED"/>
<path transform="translate(385,305)" d="m0 0h1l3 18-2 2 2 5 2 2h-2v12h-3l-2-10-4-23v-5l4 3z" fill="#EEEEF2"/>
<path transform="translate(769,611)" d="m0 0 4 1 1 3-4 13-1 6h-1v-6l-5 2-4-3v-3l6-9z" fill="#EBF1F6"/>
<path transform="translate(1306,427)" d="m0 0 2 1-7 9-4 8-1 5-1 15-2 16-3 6-1-3 1-3-1-4 3-11h-2l-1-5h2l2-14 4-9 4-6z" fill="#EFEEF3"/>
<path transform="translate(1788,381)" d="m0 0 1 4-4 20-1 2h-5l2-1h-3-5l1-2-7-2-2-2 3-3 5 2 8-3 3-5z" fill="#EEEEF3"/>
<path transform="translate(837,372)" d="m0 0 5 1h4l3 3 1 2v60h-1v-59h-18l-10-1v-1l9-1-2-3h7l2 1z" fill="#EDEFF4"/>
<path transform="translate(828,642)" d="m0 0 1 4-2 6 8-2v2l-6 2-1 5-5 2-10 1-1-2 4-6 5-5 6-4z" fill="#EBF1F6"/>
<path transform="translate(1652,373)" d="m0 0 2 1-1 1 10 2h8l3 2-1 91h-1v-91h-23l-7-1 4-3z" fill="#EFEEF3"/>
<path transform="translate(1141,495)" d="m0 0h10v2h5l-2 3-9 3h-13l-12-3v-1l11-1 9-1z" fill="#EEEDF2"/>
<path transform="translate(1068,379)" d="m0 0 3 3 2 7 1 20-15-2v-1h8v-16z" fill="#ECEFF4"/>
<path transform="translate(1450,640)" d="m0 0 2 4v3l6 7 4 1 19 1v1h-52v-5h2v3h11l1-2h5l-1-4z" fill="#EBF1F6"/>
<path transform="translate(1398,608)" d="m0 0 8 2 1 1v14l-1 5-2-1-3-8-6-6v-5z" fill="#0267D0"/>
<path transform="translate(932,230)" d="m0 0h1v22l1 56v7l1 1 10 1v1h-12l-2-4v-82z" fill="#EBF0F5"/>
<path transform="translate(319,394)" d="m0 0 3 3v5l-2 6-9-3-4-1v-2l-2 1h-8v-1l8-2 2-3 7 1z" fill="#076ABC"/>
<path transform="translate(1807,374)" d="m0 0h13l7 4v3l-2 1-1 7h-1v-10h-30l3-2 4-2z" fill="#EEEEF3"/>
<path transform="translate(1143,226)" d="m0 0h1l1 7 2 50v9l-4-4-1-4 1-6z" fill="#ECEFF4"/>
<path transform="translate(1251,438)" d="m0 0h1l1 93-3-1v-7l-2-1-1-15 2 4 1-3z" fill="#EEEEF3"/>
<path transform="translate(1371,610)" d="m0 0 9 1 1 2-2 5-11 7-2-10 1-3z" fill="#0267D1"/>
<path transform="translate(965,496)" d="m0 0h1v19l-1 14h-6l-1-7v-3l4-2-1-3 3-3-3-3v-9h1l1 7h2z" fill="#EFEEF3"/>
<path transform="translate(342,347)" d="m0 0 13 5 15 9 10 11-1 2-7-7-4-2-4-1-2-4-11-6-10-4-5-1v-1z" fill="#EBEFF3"/>
<path transform="translate(1148,247)" d="m0 0 2 1-1 3h2v23l-2 7-2-2-1-16v-13h2z" fill="#086BB9"/>
<path transform="translate(838,610)" d="m0 0h9l5 1-3 2 1 8 1 4-7 1-3 4v-16l1-2z" fill="#EBF0F5"/>
<path transform="translate(366,465)" d="m0 0h2l1 3-11 7-22 7-3-1 4-2 4-4 5-1h4v-2l6-2h4 3l1-3h2z" fill="#EEEEF2"/>
<path transform="translate(572,452)" d="m0 0 3 4 4 13 3 12 4 14 3 23-2-2-4-17-1-9-3-8-3-15-4-10z" fill="#EAEBEB"/>
<path transform="translate(852,611)" d="m0 0h5l1 1v9l-2 5-5-1-3-8 1-5z" fill="#0267D2"/>
<path transform="translate(900,380)" d="m0 0h1v61l-4-1h3l-1-32-1-16-2 7h-1v-10l1-3 3-3z" fill="#EBF0F5"/>
<path transform="translate(407,398)" d="m0 0 2 4 5 2 1 5-1 5 1 8h-2l-1 3-2-1-1 2-1-19z" fill="#EEEDF2"/>
<path transform="translate(822,531)" d="m0 0 24 1-2 4-5 2h-12v-2l-4-1 1-2z" fill="#EEEDF2"/>
<path transform="translate(913,372)" d="m0 0h8l2 5h6l2 2h-31l3-2 5-3z" fill="#EDEEF3"/>
<path transform="translate(997,467)" d="m0 0h58v1l-6 1h-22l-6 1-24-1z" fill="#EBF1F6"/>
<path transform="translate(572,603)" d="m0 0h1v20h-2l-1 5-3 4h-2l-1-4 2-4 2-10 3-4z" fill="#EBF0F5"/>
<path transform="translate(494,617)" d="m0 0 9 2 17 7 9 4 12 4 3 2v2l-10-3-36-15-4-2z" fill="#EBECEE"/>
<path transform="translate(1521,531)" d="m0 0h93l-4 3-3-1h-80l-6-1z" fill="#EBF0F5"/>
<path transform="translate(900,468)" d="m0 0h1v64l-2-3v-2h-2v-2h2v-29z" fill="#ECEFF4"/>
<path transform="translate(325,505)" d="m0 0h2l1 5-5 5-7 6-4 1-1-4 8-7z" fill="#EAEBEB"/>
<path transform="translate(1357,611)" d="m0 0h12l-2 1 2 14-3 2-1-1-3 4v-12l-2-5z" fill="#EBF0F5"/>
<path transform="translate(1418,380)" d="m0 0 2 4 2 1-12 7h-5l-3 2-1-2 5-4 5-5 5-2z" fill="#EEEDF2"/>
<path transform="translate(1161,528)" d="m0 0 2 1-2 5-4 1-9-1-7-1-20-2v-1h30z" fill="#EDEFF3"/>
<path transform="translate(267,515)" d="m0 0 2 1v1l5-1 1 5-3 3-2 4-4 2-2-2v-3l-2-1 3-4z" fill="#EBF0F5"/>
<path transform="translate(297,400)" d="m0 0h8l-2 2-20 2v11l1 7 19 1v1h-19l-4-6 1-5-2-1 2-9 4-2z" fill="#ECEFF4"/>
<path transform="translate(1560,616)" d="m0 0h5l2 4v5l-4 1-5 2-2-5v-5z" fill="#EBF1F6"/>
<path transform="translate(1548,440)" d="m0 0 3 3v8l-1 2 1 2 1 16v3l-3 1-1-1z" fill="#EEEDF2"/>
<path transform="translate(1547,415)" d="m0 0h1l1 17 2-1-1 7h-1v46l-2 2z" fill="#EBF0F5"/>
<path transform="translate(889,398)" d="m0 0 1 2-2 11 1 5-4 5-2 2h-2l-3 2 1-5 4-7 4-13z" fill="#EAEBEB"/>
<path transform="translate(365,578)" d="m0 0 4 1 5 7 2 5 8 8 13 8-3 1-11-7-13-13-3-5v-2h-2z" fill="#EDEFF4"/>
<path transform="translate(1941,518)" d="m0 0 20 8 8 2 12 1h6l-4 2h-12l-14-3-12-6z" fill="#0C69B7"/>
<path transform="translate(966,586)" d="m0 0 8 1 2 2-1 5-3 4-4-7h-9l4-2v-2z" fill="#EEEEF3"/>
<path transform="translate(1550,492)" d="m0 0 4 2 3 3 7 3-2 2h-12l-2-2 1-7z" fill="#EAEBEB"/>
<path transform="translate(1143,477)" d="m0 0 5 5 2 10-5 2h-2l-1-9v-6z" fill="#EFEEF3"/>
<path transform="translate(1947,380)" d="m0 0 3 1-7 6 1 2-9 6v-2h-2l-1 2-2-2h2v-3h2v-2z" fill="#EEEDF2"/>
<path transform="translate(1481,644)" d="m0 0 4 1 3 1 1 2h4l-1 6 4 1-10 1h-3l-2-1 3-5-1-4z" fill="#EBF1F6"/>
<path transform="translate(931,399)" d="m0 0 1 2 2 1-1 3 1 6v17l-1 4h-2z" fill="#EAEBEB"/>
<path transform="translate(1668,298)" d="m0 0h5l1 9-3 3-3 1-3-7v-3z" fill="#076AB9"/>
<path transform="translate(881,615)" d="m0 0 5 2 1 2v12h-1v-8l-8 3-1-1v-6z" fill="#EBF0F5"/>
<path transform="translate(545,654)" d="m0 0 12 2h21l-2 4-20-1-11-2z" fill="#EBF0F5"/>
<path transform="translate(1327,224)" d="m0 0h5l1 3-5 1-2 10-2 5h-1v-17z" fill="#066ABF"/>
<path transform="translate(870,389)" d="m0 0 3 3 1 5 5-3-1 6-3 6h-3l-2-12z" fill="#EFEEF3"/>
<path transform="translate(560,406)" d="m0 0h2l1 3 2 2 2 9 5 12 2 5v3l-2-1-4-9-4-12-4-9z" fill="#EFEEF3"/>
<path transform="translate(1323,377)" d="m0 0 4 1 1 5-2 5-1 11h-2l-1-21z" fill="#EDECF0"/>
<path transform="translate(1283,406)" d="m0 0h35v1l-16 2v-2l-2 2h-13l-5-1z" fill="#EBF1F6"/>
<path transform="translate(1209,378)" d="m0 0h3v27l17 1v2l2 1-5 1-4-2-3 1-8-3-1-5 1-21-3 1-1-2z" fill="#ECEFF4"/>
<path transform="translate(1211,370)" d="m0 0 4 4v2l44 1v1h-47l-2-3z" fill="#EFEEF3"/>
<path transform="translate(786,518)" d="m0 0 2 4 3 2-7 3-7 2-2-4z" fill="#EBF0F5"/>
<path transform="translate(1151,612)" d="m0 0h1l1 6 5 3v5l-6 7-1-3z" fill="#ECEFF4"/>
<path transform="translate(1070,502)" d="m0 0h2l1 6-2 3h-1l-1 10v9h-1l-1-7v-19z" fill="#EDEEF3"/>
<path transform="translate(1652,373)" d="m0 0 2 1-1 1 10 2h8l1 2h-23l-7-1 4-3z" fill="#EDEFF4"/>
<path transform="translate(255,296)" d="m0 0h1l-1 9-3 17-1 9 9-1v1l-12 2 2-13h-2v-3h3l2-13z" fill="#EBF0F5"/>
<path transform="translate(260,513)" d="m0 0 3 3 1 7v2 6l-2 1-2-1-1-9-1-4h2z" fill="#EAEBEB"/>
<path transform="translate(1122,617)" d="m0 0h5l1 3v7l-1-4h-4l-5 5-2 1 2-5 1-6z" fill="#EBF1F6"/>
<path transform="translate(331,547)" d="m0 0h6l9 10 4 7-1 3-8-11-7-6-3-1z" fill="#EFEEF3"/>
<path transform="translate(1286,613)" d="m0 0h5v9l-7-1-4 1 2-5z" fill="#EBF0F5"/>
<path transform="translate(1118,377)" d="m0 0h11l1 3-13 3h-4l-1-3 2-2z" fill="#EAECED"/>
<path transform="translate(1125,465)" d="m0 0 18 2 15 3 4 3-12-2-12-1-4-1-9-3z" fill="#EBF0F5"/>
<path transform="translate(715,383)" d="m0 0 2 2-4 3-1 3h-2l1 3-5 4-4-2 4-6z" fill="#EEEEF2"/>
<path transform="translate(1096,244)" d="m0 0h2l4 10v8l-5-5-1-2z" fill="#086BB9"/>
<path transform="translate(1402,629)" d="m0 0h1v9l-5 6-5 1 1-4 6-7z" fill="#EAEBEC"/>
<path transform="translate(929,526)" d="m0 0h6v2l-2 2v5l-3-2-28-1v-1l26-1z" fill="#EDEFF4"/>
<path transform="translate(1594,314)" d="m0 0 3 3h4l2-3v4h9l-3 2-13 1-11-2v-1h9z" fill="#EBF0F5"/>
<path transform="translate(1508,592)" d="m0 0h5l-1 7-1 2h-5l-1-1v-5z" fill="#0267D2"/>
<path transform="translate(1487,511)" d="m0 0 2 1-3 11-4 2-3 3h-3v-2l-2-1 9-6 3-4z" fill="#EBF1F6"/>
<path transform="translate(1068,379)" d="m0 0 3 3 2 7-1 6-4 2z" fill="#EDEDF1"/>
<path transform="translate(1874,374)" d="m0 0h4 8v2l2 2h-20l3-3z" fill="#EEEDF2"/>
<path transform="translate(1623,297)" d="m0 0h34l3 4-1 2-5-3-25-1-6-1z" fill="#EBF0F5"/>
<path transform="translate(768,491)" d="m0 0 7 1v2l4 2-3 3-3-2-6 1v-3l-2-2h3z" fill="#EEEEF2"/>
<path transform="translate(1145,262)" d="m0 0h1l1 30-4-4-1-4h1l1-5z" fill="#EBF1F6"/>
<path transform="translate(1517,506)" d="m0 0h1l1 26-3-1v-24z" fill="#EDEFF4"/>
<path transform="translate(1093,623)" d="m0 0 2 1-1 9-2 7-2-4v-6l-1-3z" fill="#076ABA"/>
<path transform="translate(259,495)" d="m0 0h1l2 6 1 4v5l-2 3-1 5h-1z" fill="#EBF1F6"/>
<path transform="translate(899,383)" d="m0 0h1v25h-1l-1-16-2 7h-1v-10l1-3z" fill="#EFEEF3"/>
<path transform="translate(316,377)" d="m0 0h8l2 1v16h-1l-2-9v-4h-2v-2l-5-1z" fill="#076ABA"/>
<path transform="translate(351,245)" d="m0 0 6 3 5-1 1 2-7 4-3 1-2-1z" fill="#EAEBEB"/>
<path transform="translate(789,641)" d="m0 0h1l2 8 4 3 7 1 7-2-3 3-9 3-5-4-5-5z" fill="#EBF1F6"/>
<path transform="translate(765,644)" d="m0 0h1v8l9-1v2l-9 1-1 2-5-2 2-5z" fill="#EBF1F6"/>
<path transform="translate(265,564)" d="m0 0 4 1-4 5-9 3-2 1 2-4z" fill="#066ABE"/>
<path transform="translate(377,451)" d="m0 0 2 1-1 4-2 5-6 5 1-6z" fill="#EEEEF3"/>
<path transform="translate(1057,442)" d="m0 0 4 4-2 7-1 1-1 14h-1v-18z" fill="#EDEEF3"/>
<path transform="translate(935,380)" d="m0 0 5 1 2 3-2 1v2l13 1v1l-11 1-5-3-2-4z" fill="#EEEDF2"/>
<path transform="translate(1029,619)" d="m0 0h1l1 14 2 2h-2l-1 3-6 1 1-5h4z" fill="#EBF1F6"/>
<path transform="translate(952,586)" d="m0 0 3 2-2 6 2 1-4-1v-3l-5 3-7 6 2-4z" fill="#EBF0F4"/>
<path transform="translate(1718,274)" d="m0 0h6l3 4-1 3-5-1-2-3-5-1z" fill="#EDEFF4"/>
<path transform="translate(1650,272)" d="m0 0 2 2 3 13-2 1-10-1v-1h8l-1-3z" fill="#EBF1F6"/>
<path transform="translate(1035,681)" d="m0 0 2 4 1 3 4 2-2 1 1 3h-2l-4-7-7 6-4 2 6-7 3-3h2z" fill="#EAF0F4"/>
<path transform="translate(1970,404)" d="m0 0h12l3 2h-7l-2 2-12-1 2-2z" fill="#EBF1F6"/>
<path transform="translate(1784,397)" d="m0 0 2 1-1 7-1 2h-5l2-1-3-4z" fill="#EAF0F5"/>
<path transform="translate(990,636)" d="m0 0 3 3 1 5-7-1-3 2 2-6z" fill="#EBF0F5"/>
<path transform="translate(773,620)" d="m0 0h1v14h-1l-1-5-1 1-1 7-2 1 1-10 2-6h2z" fill="#076ABB"/>
<path transform="translate(1706,530)" d="m0 0 29 1-2 2h-20l-7-2z" fill="#EDEEF3"/>
<path transform="translate(818,496)" d="m0 0h1v32h-1l-3-11 1-4 1 3z" fill="#EFEEF3"/>
<path transform="translate(1994,380)" d="m0 0 14 5 7 3-2 1-1 2-18-9z" fill="#EBECEE"/>
<path transform="translate(1045,697)" d="m0 0 10 2 8-1-3 3-4 2h-7v-3l-4-2z" fill="#EBF1F6"/>
<path transform="translate(549,604)" d="m0 0h3v6l-6 1-5-2 3-2z" fill="#EFEEF3"/>
<path transform="translate(1145,437)" d="m0 0h10l9 3 8 2v1l-10-1-13-3z" fill="#EFEEF3"/>
<path transform="translate(1950,379)" d="m0 0 5 1v3l-10 5-3-1 5-5 3-1z" fill="#EBECEE"/>
<path transform="translate(1256,635)" d="m0 0 2 3 1 2v14h5v1h-7l-1-1v-7l1-4z" fill="#EBF1F6"/>
<path transform="translate(1254,531)" d="m0 0h26v1l-16 1-9 2z" fill="#EDEFF4"/>
<path transform="translate(720,600)" d="m0 0 3 3 1 7-4 8-1-3z" fill="#ECF0F5"/>
<path transform="translate(1832,461)" d="m0 0 4 2 2 4 1 3-5-1-1-2-2 6h-1v-7z" fill="#EFEEF3"/>
<path transform="translate(1140,300)" d="m0 0 5 1 2 4v5l-4-3-3-2-1-3z" fill="#086BB9"/>
<path transform="translate(1067,303)" d="m0 0 1 2 2 1-2 8-1 2h-2l-1-9 3-1z" fill="#086BB9"/>
<path transform="translate(280,415)" d="m0 0h3l1 7 19 1v1h-19l-4-6z" fill="#EBF0F5"/>
<path transform="translate(975,663)" d="m0 0 1 4-3 3-2 1h-6l-2-4 2-2 1 2 8 1z" fill="#EBF1F6"/>
<path transform="translate(966,586)" d="m0 0 8 1 2 2-1 4-2-5-7 1-2 2h-5l4-2v-2z" fill="#EBF0F5"/>
<path transform="translate(1082,636)" d="m0 0 2 4-2 3v2h2l-1 7h-1l-2-6-4-2 5-5z" fill="#EBF0F5"/>
<path transform="translate(1822,515)" d="m0 0 3 4 1 5-2 10-2-3z" fill="#EFEEF3"/>
<path transform="translate(1291,409)" d="m0 0h9l9 3 1-3 1 4h-9l-11-3z" fill="#EAEBEB"/>
<path transform="translate(530,631)" d="m0 0 9 2 5 3v2l-10-3z" fill="#EAEBEC"/>
<path transform="translate(930,503)" d="m0 0h1l1 16 1 4-3 1-1 2z" fill="#EFEEF3"/>
<path transform="translate(303,479)" d="m0 0 4 1-8 6-6 1 5-5z" fill="#EFEEF3"/>
<path transform="translate(103,417)" d="m0 0 1 4-3 7h-2l-1-4 3-6z" fill="#066ABD"/>
<path transform="translate(426,242)" d="m0 0h8l3 2 8 3v1l-7-1-9-2z" fill="#EAEBEB"/>
<path transform="translate(1579,497)" d="m0 0h17l2 3h-9l-10-2z" fill="#EAEBEB"/>
<path transform="translate(727,378)" d="m0 0h13v2l-8 1-4-1-8 2 1-2z" fill="#EEEEF3"/>
<path transform="translate(922,371)" d="m0 0 1 2 6 1-1 4h-5l-3-3z" fill="#ECECEF"/>
<path transform="translate(1220,648)" d="m0 0v3l-2 3h5l1 2-8 1v-5z" fill="#EBF1F6"/>
<path transform="translate(575,656)" d="m0 0h3l-2 4-17-1v-1l13-1z" fill="#ECEEF3"/>
<path transform="translate(1345,649)" d="m0 0h1v5l3 1-7 2-1-3z" fill="#EBF1F6"/>
<path transform="translate(504,379)" d="m0 0h2l4 10h-3v-2l-3-1z" fill="#EAEBEB"/>
<path transform="translate(1051,372)" d="m0 0 8 1 4 3h-13z" fill="#EFEEF3"/>
<path transform="translate(342,347)" d="m0 0 6 2v2l6 2-3 1-10-4-5-1v-1z" fill="#EDEFF4"/>
<path transform="translate(1141,306)" d="m0 0 5 2v2h2l1 4h-3l-5-6z" fill="#0368CB"/>
<path transform="translate(851,432)" d="m0 0h2l4 7-4 1-2-1z" fill="#EAEBEB"/>
<path transform="translate(930,392)" d="m0 0 4 1-1 7h-1l-1 5h-1z" fill="#EFEEF3"/>
<path transform="translate(1351,312)" d="m0 0h1v5l13-1-2 2-13 1z" fill="#EBF1F6"/>
<path transform="translate(438,277)" d="m0 0 5 2 6 7h-3v-2l-5-2v-2l-3-1z" fill="#ECEFF4"/>
<path transform="translate(1041,626)" d="m0 0h1l1 5v10h-1l-1-7h-2l1-5z" fill="#ECEFF4"/>
<path transform="translate(1548,440)" d="m0 0 3 3v8l-3 2z" fill="#EFEEF3"/>
<path transform="translate(1393,242)" d="m0 0 3 1 2 7h-4l-2-7z" fill="#086BB9"/>
<path transform="translate(2e3 494)" d="m0 0h6l1 3 2 1-2 1-7-2z" fill="#EEEEF3"/>
<path transform="translate(998,469)" d="m0 0h5v3l-4 2-1 4z" fill="#EAEBEB"/>
<path transform="translate(1569,618)" d="m0 0h1l-1 12-1 4h-2l1-9 1-5z" fill="#126AA7"/>
<path transform="translate(719,587)" d="m0 0 3 2h6l-2 5-4-1-3-4z" fill="#EBF0F5"/>
<path transform="translate(328,480)" d="m0 0h4v3l-9 3 2-4z" fill="#EDEEF3"/>
<path transform="translate(1677,415)" d="m0 0 2 2 2 8h2l-1 3h-2l-3-9z" fill="#EFEEF3"/>
<path transform="translate(267,320)" d="m0 0h1l1 7-1 2h9v1h-13l2-1z" fill="#EBF0F5"/>
</svg>
